<svg width="140" height="123" viewBox="0 0 140 123" fill="none" xmlns="http://www.w3.org/2000/svg">
<path d="M101.147 65.5662C106.98 70.2875 111.923 74.1201 116.7 78.1748C120.921 81.7853 125.032 85.4513 129.031 89.3394C132.808 93.0053 136.029 96.8934 135.141 102.892C134.863 104.892 136.141 107.114 136.585 109.28C137.029 111.446 137.585 113.612 137.64 115.834C137.751 120.444 134.196 123.444 129.642 122.555C127.531 122.111 125.476 121.166 123.476 120.222C106.757 112.335 90.0384 104.503 73.4305 96.449C54.9897 87.5063 35.6047 81.7853 15.4975 78.0638C11.8871 77.3972 8.2211 76.5641 4.77733 75.3976C1.77792 74.3978 0.000435996 72.0094 0.000435996 68.6212C0.0559807 65.6773 1.72232 63.1778 5.27718 62.4002C24.1068 58.2344 40.0482 48.1807 56.1006 38.3493C77.5408 25.1852 99.6476 13.2986 122.754 3.30057C125.143 2.30077 127.476 1.18996 129.975 0.467874C132.919 -0.365296 135.863 -0.309779 137.974 2.523C139.751 4.91142 139.14 7.18867 138.196 9.79927C131.364 28.0735 119.422 43.015 107.535 58.0121C105.758 60.345 103.758 62.5113 101.147 65.5662ZM113.367 23.4077C85.4282 35.6276 61.7106 51.2912 37.271 65.5662C36.9377 65.7884 37.0488 66.8438 36.8822 68.0657C40.937 69.2877 45.1583 70.3985 49.3241 71.7316C53.1567 73.0091 56.9894 74.3423 60.7664 75.842C64.8767 77.4528 68.9869 79.1747 73.0417 80.9521C77.0965 82.7295 81.0957 84.6736 85.0949 86.5066C89.0941 88.3395 93.1489 90.1724 97.2037 92.0054C100.87 93.7273 104.48 95.6159 108.257 97.1156C112.201 98.7264 115.7 101.504 120.588 102.059C119.977 100.615 119.921 99.7817 119.477 99.3929C108.979 89.5059 98.2035 80.0633 85.5393 73.0092C78.0963 68.8989 78.1518 64.0109 85.4282 58.9563C89.0386 56.4568 92.7046 53.7908 95.4818 50.4581C101.314 43.3484 106.646 35.7943 112.09 28.3513C112.478 27.5737 112.534 26.4071 113.367 23.4077Z" fill="black"/>
</svg>
