<svg width="140" height="124" viewBox="0 0 140 124" fill="none" xmlns="http://www.w3.org/2000/svg">
<path d="M38.401 58.0256C32.5688 53.3043 27.6253 49.4717 22.8485 45.417C18.6271 41.8065 14.5168 38.1405 10.5176 34.2524C6.74052 30.5865 3.51892 26.6984 4.40764 20.6996C4.68536 18.7 3.40778 16.4782 2.96342 14.3119C2.51906 12.1457 1.96367 9.97941 1.90813 7.75762C1.79704 3.14741 5.35184 0.148081 9.90651 1.0368C12.0172 1.48115 14.0724 2.42539 16.072 3.36965C32.791 11.257 49.51 19.0888 66.1179 27.1428C84.5587 36.0855 103.944 41.8065 124.051 45.528C127.661 46.1946 131.327 47.0278 134.771 48.1942C137.77 49.194 139.548 51.5824 139.548 54.9706C139.492 57.9145 137.826 60.414 134.271 61.1916C115.442 65.3574 99.5002 75.4111 83.4478 85.2425C62.0075 98.4066 39.9007 110.293 16.7941 120.291C14.4057 121.291 12.0728 122.402 9.57332 123.124C6.62945 123.957 3.6855 123.902 1.5748 121.069C-0.202626 118.68 0.40842 116.403 1.35268 113.793C8.18468 95.5183 20.1268 80.5768 32.0133 65.5797C33.7908 63.2468 35.7904 61.0805 38.401 58.0256ZM26.1811 100.184C54.1201 87.9642 77.8377 72.3006 102.277 58.0256C102.611 57.8034 102.5 56.748 102.666 55.5261C98.6114 54.3041 94.3901 53.1933 90.2242 51.8602C86.3916 50.5827 82.559 49.2495 78.7819 47.7498C74.6716 46.139 70.5614 44.4171 66.5066 42.6397C62.4519 40.8623 58.4527 38.9182 54.4535 37.0853C50.4542 35.2523 46.3995 33.4194 42.3447 31.5864C38.6787 29.8645 35.0683 27.9759 31.2912 26.4762C27.3475 24.8654 23.8483 22.0882 18.9603 21.5327C19.5713 22.9769 19.6269 23.8101 20.0712 24.1989C30.5692 34.0859 41.3449 43.5285 54.0091 50.5826C61.4521 54.6929 61.3965 59.5809 54.1201 64.6355C50.5097 67.135 46.8437 69.801 44.0665 73.1337C38.2343 80.2434 32.9021 87.7975 27.4587 95.2405C27.0699 96.0182 27.0143 97.1847 26.1811 100.184Z" fill="black"/>
</svg>
